<svg width="376" height="49" viewBox="0 0 376 49" fill="none" xmlns="http://www.w3.org/2000/svg">
<path d="M40.968 2.88V48H28.424V29.888H13.128V48H0.584V2.88H13.128V19.84H28.424V2.88H40.968ZM64.8505 48.448C61.2665 48.448 58.0452 47.7013 55.1865 46.208C52.3705 44.7147 50.1518 42.5813 48.5305 39.808C46.9092 37.0347 46.0985 33.7707 46.0985 30.016C46.0985 26.304 46.9092 23.0613 48.5305 20.288C50.1945 17.5147 52.4345 15.3813 55.2505 13.888C58.1092 12.3947 61.3305 11.648 64.9145 11.648C68.4985 11.648 71.6985 12.3947 74.5145 13.888C77.3732 15.3813 79.6132 17.5147 81.2345 20.288C82.8985 23.0613 83.7305 26.304 83.7305 30.016C83.7305 33.728 82.8985 36.992 81.2345 39.808C79.6132 42.5813 77.3732 44.7147 74.5145 46.208C71.6558 47.7013 68.4345 48.448 64.8505 48.448ZM64.8505 37.568C66.5998 37.568 68.0505 36.928 69.2025 35.648C70.3972 34.3253 70.9945 32.448 70.9945 30.016C70.9945 27.584 70.3972 25.728 69.2025 24.448C68.0505 23.168 66.6212 22.528 64.9145 22.528C63.2078 22.528 61.7785 23.168 60.6265 24.448C59.4745 25.728 58.8985 27.584 58.8985 30.016C58.8985 32.4907 59.4532 34.368 60.5625 35.648C61.6718 36.928 63.1012 37.568 64.8505 37.568ZM104.13 48.448C100.887 48.448 97.986 47.9147 95.426 46.848C92.9087 45.7387 90.9033 44.2453 89.41 42.368C87.9593 40.448 87.1487 38.2933 86.978 35.904H99.138C99.3087 37.056 99.842 37.952 100.738 38.592C101.634 39.232 102.743 39.552 104.066 39.552C105.09 39.552 105.901 39.3387 106.498 38.912C107.095 38.4853 107.394 37.9307 107.394 37.248C107.394 36.352 106.903 35.6907 105.922 35.264C104.941 34.8373 103.319 34.368 101.058 33.856C98.498 33.344 96.3647 32.768 94.658 32.128C92.9513 31.488 91.458 30.4427 90.178 28.992C88.9407 27.5413 88.322 25.5787 88.322 23.104C88.322 20.9707 88.898 19.0507 90.05 17.344C91.202 15.5947 92.8873 14.208 95.106 13.184C97.3673 12.16 100.077 11.648 103.234 11.648C107.927 11.648 111.618 12.8 114.306 15.104C116.994 17.408 118.551 20.4373 118.978 24.192H107.65C107.437 23.04 106.925 22.1653 106.114 21.568C105.346 20.928 104.301 20.608 102.978 20.608C101.954 20.608 101.165 20.8 100.61 21.184C100.098 21.568 99.842 22.1013 99.842 22.784C99.842 23.6373 100.333 24.2987 101.314 24.768C102.295 25.1947 103.874 25.6427 106.05 26.112C108.653 26.6667 110.807 27.2853 112.514 27.968C114.263 28.6507 115.778 29.76 117.058 31.296C118.381 32.7893 119.042 34.8373 119.042 37.44C119.042 39.5307 118.423 41.408 117.186 43.072C115.991 44.736 114.263 46.0587 112.002 47.04C109.783 47.9787 107.159 48.448 104.13 48.448ZM146.393 37.312V48H140.953C131.78 48 127.193 43.456 127.193 34.368V22.528H122.777V12.096H127.193V3.392H139.801V12.096H146.329V22.528H139.801V34.56C139.801 35.5413 140.014 36.2453 140.441 36.672C140.91 37.0987 141.678 37.312 142.745 37.312H146.393ZM186.451 29.632C186.451 30.6133 186.387 31.5947 186.259 32.576H162.515C162.643 34.5387 163.176 36.0107 164.115 36.992C165.096 37.9307 166.333 38.4 167.827 38.4C169.917 38.4 171.411 37.4613 172.307 35.584H185.683C185.128 38.0587 184.04 40.2773 182.419 42.24C180.84 44.16 178.835 45.6747 176.403 46.784C173.971 47.8933 171.283 48.448 168.339 48.448C164.797 48.448 161.64 47.7013 158.867 46.208C156.136 44.7147 153.981 42.5813 152.403 39.808C150.867 37.0347 150.099 33.7707 150.099 30.016C150.099 26.2613 150.867 23.0187 152.403 20.288C153.939 17.5147 156.072 15.3813 158.803 13.888C161.576 12.3947 164.755 11.648 168.339 11.648C171.88 11.648 175.016 12.3733 177.747 13.824C180.477 15.2747 182.611 17.3653 184.147 20.096C185.683 22.784 186.451 25.9627 186.451 29.632ZM173.651 26.496C173.651 24.96 173.139 23.7653 172.115 22.912C171.091 22.016 169.811 21.568 168.275 21.568C166.739 21.568 165.48 21.9947 164.499 22.848C163.517 23.6587 162.877 24.8747 162.579 26.496H173.651ZM204.128 0.639999V48H191.584V0.639999H204.128ZM263.944 2.88V48H251.4V23.104L242.888 48H232.392L223.816 22.912V48H211.272V2.88H226.44L237.768 32.192L248.84 2.88H263.944ZM269.036 30.016C269.036 26.304 269.697 23.0613 271.02 20.288C272.385 17.5147 274.22 15.3813 276.524 13.888C278.871 12.3947 281.473 11.648 284.332 11.648C286.807 11.648 288.94 12.1387 290.732 13.12C292.524 14.1013 293.911 15.424 294.892 17.088V12.096H307.436V48H294.892V43.008C293.911 44.672 292.503 45.9947 290.668 46.976C288.876 47.9573 286.764 48.448 284.332 48.448C281.473 48.448 278.871 47.7013 276.524 46.208C274.22 44.7147 272.385 42.5813 271.02 39.808C269.697 36.992 269.036 33.728 269.036 30.016ZM294.892 30.016C294.892 27.712 294.252 25.8987 292.972 24.576C291.735 23.2533 290.199 22.592 288.364 22.592C286.487 22.592 284.929 23.2533 283.692 24.576C282.455 25.856 281.836 27.6693 281.836 30.016C281.836 32.32 282.455 34.1547 283.692 35.52C284.929 36.8427 286.487 37.504 288.364 37.504C290.199 37.504 291.735 36.8427 292.972 35.52C294.252 34.1973 294.892 32.3627 294.892 30.016ZM335.768 37.312V48H330.328C321.155 48 316.568 43.456 316.568 34.368V22.528H312.152V12.096H316.568V3.392H329.176V12.096H335.704V22.528H329.176V34.56C329.176 35.5413 329.389 36.2453 329.816 36.672C330.285 37.0987 331.053 37.312 332.12 37.312H335.768ZM375.826 29.632C375.826 30.6133 375.762 31.5947 375.634 32.576H351.89C352.018 34.5387 352.551 36.0107 353.49 36.992C354.471 37.9307 355.708 38.4 357.202 38.4C359.292 38.4 360.786 37.4613 361.682 35.584H375.058C374.503 38.0587 373.415 40.2773 371.794 42.24C370.215 44.16 368.21 45.6747 365.778 46.784C363.346 47.8933 360.658 48.448 357.714 48.448C354.172 48.448 351.015 47.7013 348.242 46.208C345.511 44.7147 343.356 42.5813 341.778 39.808C340.242 37.0347 339.474 33.7707 339.474 30.016C339.474 26.2613 340.242 23.0187 341.778 20.288C343.314 17.5147 345.447 15.3813 348.178 13.888C350.951 12.3947 354.13 11.648 357.714 11.648C361.255 11.648 364.391 12.3733 367.122 13.824C369.852 15.2747 371.986 17.3653 373.522 20.096C375.058 22.784 375.826 25.9627 375.826 29.632ZM363.026 26.496C363.026 24.96 362.514 23.7653 361.49 22.912C360.466 22.016 359.186 21.568 357.65 21.568C356.114 21.568 354.855 21.9947 353.874 22.848C352.892 23.6587 352.252 24.8747 351.954 26.496H363.026Z" fill="url(#paint0_linear_11_13)"/>
<defs>
<linearGradient id="paint0_linear_11_13" x1="-3" y1="26" x2="228.969" y2="75.7712" gradientUnits="userSpaceOnUse">
<stop stop-color="#C566FF"/>
<stop offset="1" stop-color="#829EFF"/>
</linearGradient>
</defs>
</svg>
